<?xml version="1.0" standalone="no"?>
<!DOCTYPE svg PUBLIC "-//W3C//DTD SVG 20010904//EN"
 "http://www.w3.org/TR/2001/REC-SVG-20010904/DTD/svg10.dtd">
<svg version="1.0" xmlns="http://www.w3.org/2000/svg"
 width="256.000000pt" height="256.000000pt" viewBox="0 0 256.000000 256.000000"
 preserveAspectRatio="xMidYMid meet">
<metadata>
Created by potrace 1.14, written by Peter Selinger 2001-2017
</metadata>
<g transform="translate(0.000000,256.000000) scale(0.100000,-0.100000)"
fill="#000000" stroke="none">
<path d="M850 2536 c-252 -72 -453 -326 -496 -628 -3 -26 -8 -242 -9 -480 -2
-238 -6 -460 -9 -493 -24 -248 -49 -431 -71 -530 -8 -33 -17 -75 -20 -94 -3
-19 -25 -92 -49 -163 l-43 -128 36 0 c61 -1 344 -1 384 -1 34 1 40 5 54 38 27
66 71 217 92 319 30 145 39 203 56 362 3 26 7 61 10 77 13 87 20 295 20 587 0
211 4 328 10 329 49 6 59 3 65 -21 13 -50 2 -670 -15 -830 -2 -25 -7 -74 -10
-110 -4 -36 -8 -76 -10 -90 -2 -14 -9 -61 -15 -105 -19 -135 -60 -314 -100
-435 -21 -63 -37 -116 -35 -118 2 -3 1503 -5 1672 -2 l32 0 -29 79 c-44 120
-101 355 -115 476 -3 28 -8 59 -10 71 -2 11 -7 45 -10 75 -3 30 -8 68 -10 84
-2 17 -7 68 -10 115 -4 47 -9 101 -12 120 -2 19 -6 217 -9 440 -2 223 -6 414
-8 426 -3 12 -8 38 -12 59 -30 188 -183 416 -341 508 -161 93 -356 104 -525
30 -25 -12 -50 -17 -55 -13 -4 4 -39 19 -78 33 -57 20 -90 25 -175 25 -58 0
-125 -5 -150 -12z m262 -108 c27 -6 48 -15 48 -18 0 -3 -16 -22 -36 -41 -102
-98 -186 -262 -214 -420 -6 -35 -13 -73 -15 -84 -4 -20 -11 -21 -220 -21
l-215 0 0 26 c0 49 40 182 76 253 64 128 149 217 259 272 103 51 206 62 317
33z m560 -3 c98 -28 212 -115 278 -210 64 -93 118 -236 123 -325 l2 -45 -217
-1 -216 0 -7 65 c-17 155 -114 360 -219 460 -20 19 -36 38 -36 42 0 6 59 24
105 32 41 7 133 -2 187 -18z m-362 -108 c78 -71 153 -188 182 -280 20 -64 37
-143 38 -168 l0 -25 -252 1 c-139 2 -258 3 -264 4 -9 1 -8 19 2 69 25 125 55
200 117 292 28 41 125 140 137 140 3 0 21 -15 40 -33z m367 -917 c-6 -24 0
-28 82 -57 90 -32 138 -62 205 -130 132 -133 180 -345 116 -515 -20 -55 -22
-57 -46 -46 -19 9 -24 17 -19 32 40 124 45 208 19 297 -24 80 -50 126 -107
187 -59 61 -109 93 -190 121 l-57 20 0 -25 c0 -33 -10 -30 -55 16 -42 43 -41
46 15 97 31 28 44 29 37 3z m-112 -50 c9 -27 -1 -40 -31 -40 -43 0 -145 -40
-204 -80 -148 -101 -228 -310 -181 -478 11 -38 14 -41 32 -31 27 14 31 8 20
-27 -5 -16 -12 -42 -16 -57 -4 -21 -10 -27 -23 -23 -9 3 -37 10 -61 16 l-44
12 26 21 27 22 -15 50 c-33 106 -11 277 47 376 65 109 166 192 285 231 93 32
130 34 138 8z m-33 -230 c259 -68 377 -167 380 -318 1 -42 -5 -71 -21 -105
l-23 -46 -48 73 c-63 93 -200 229 -281 278 -70 43 -88 43 -38 1 62 -52 136
-128 184 -188 45 -56 115 -185 115 -212 0 -37 -132 -60 -211 -37 -55 16 -119
73 -147 129 -11 22 -30 87 -42 145 -27 126 -49 178 -100 247 -27 35 -36 53
-27 57 24 11 183 -4 259 -24z m510 -540 c17 -63 15 -69 -18 -46 -19 14 -25 11
-78 -39 -205 -190 -524 -184 -720 13 -61 62 -67 76 -35 92 18 10 25 6 62 -36
167 -190 466 -201 656 -25 l44 40 -28 13 -28 13 54 17 c30 9 59 17 64 17 6 1
18 -26 27 -59z"/>
</g>
</svg>
